<?xml version="1.0" encoding="UTF-8" standalone="no"?>
<svg
   xmlns:dc="http://purl.org/dc/elements/1.1/"
   xmlns:cc="http://creativecommons.org/ns#"
   xmlns:rdf="http://www.w3.org/1999/02/22-rdf-syntax-ns#"
   xmlns:svg="http://www.w3.org/2000/svg"
   xmlns="http://www.w3.org/2000/svg"
   version="1.1"
   width="64"
   height="64"
   >
  <title
     id="title4">Earth Icon</title>
  <circle
     stroke-width="0"
     r="32"
     fill="#330000"
     cx="32"
     cy="32"
     id="earth-ext" />
  <circle
     stroke-width="0"
     r="28"
     fill="#3333ff"
     cx="32"
     cy="32"
     id="earth-sea" />
  <path
     style="fill:none;fill-rule:evenodd;stroke:#008800;fill:#55cc55;stroke-width:1px;stroke-linecap:butt;stroke-linejoin:miter;stroke-opacity:1"
     d="m 29.288136,13.830508 c -1.084746,0.542373 -11.661017,5.966102 -11.661017,5.966102 0,0 -16.0000004,9.220339 -0.542373,7.864407 15.457627,-1.355932 33.627118,5.152542 30.101695,-2.169492 -3.525424,-7.322033 -4.881356,-9.762711 -8.677966,-11.38983 -3.796611,-1.627119 -8.677967,-1.355932 -9.220339,-0.271187 z"
     id="cont1"
     />
  <path
     style="fill:none;fill-rule:evenodd;stroke:#008800;fill:#55cc55;stroke-width:1px;stroke-linecap:butt;stroke-linejoin:miter;stroke-opacity:1"
     d="m 12.20339,51.525424 c 0,0 7.864407,-9.220339 12.745763,-6.237288 4.881355,2.98305 9.491525,2.98305 11.932203,8.135593 2.440678,5.152542 1.084746,6.508474 -2.169492,6.508474 -3.254237,0 -7.864406,0 -10.033898,-0.813559 -2.169491,-0.813559 -8.40678,-4.067797 -10.033898,-5.423729 -1.627119,-1.355932 -2.440678,-2.169491 -2.440678,-2.169491 z"
     id="cont2"
    />
</svg>
